<?xml version="1.0" standalone="no"?>
<!DOCTYPE svg PUBLIC "-//W3C//DTD SVG 20010904//EN"
 "http://www.w3.org/TR/2001/REC-SVG-20010904/DTD/svg10.dtd">
<svg version="1.0" xmlns="http://www.w3.org/2000/svg"
 width="1600.000000pt" height="1600.000000pt" viewBox="0 0 1600.000000 1600.000000"
 preserveAspectRatio="xMidYMid meet">
<metadata>
Created by potrace 1.11, written by Peter Selinger 2001-2013
</metadata>
<g transform="translate(0.000000,1600.000000) scale(0.100000,-0.100000)"
fill="#000000" stroke="none">
<path d="M13217 14334 c-1 -1 -117 -5 -257 -8 -140 -4 -268 -9 -285 -11 -16
-2 -85 -6 -153 -10 -67 -3 -130 -8 -140 -9 -9 -2 -57 -7 -107 -10 -49 -4 -101
-9 -115 -11 -14 -2 -54 -6 -90 -10 -36 -4 -76 -8 -90 -10 -14 -2 -54 -7 -90
-10 -36 -4 -74 -9 -84 -11 -11 -2 -42 -6 -70 -9 -28 -3 -58 -8 -66 -10 -8 -2
-39 -7 -69 -10 -30 -3 -57 -7 -60 -9 -3 -2 -33 -7 -66 -11 -32 -3 -62 -8 -65
-10 -3 -1 -25 -6 -50 -9 -58 -8 -84 -13 -200 -36 -30 -6 -66 -13 -80 -15 -60
-11 -277 -58 -420 -91 -190 -44 -171 -39 -195 -47 -11 -3 -31 -8 -45 -11 -14
-2 -50 -11 -81 -20 -31 -9 -65 -18 -75 -21 -11 -2 -75 -20 -144 -40 -69 -20
-132 -38 -140 -40 -8 -2 -40 -12 -70 -23 -30 -11 -59 -20 -65 -22 -19 -5 -31
-9 -215 -70 -102 -33 -189 -62 -195 -64 -5 -2 -21 -7 -35 -13 -14 -5 -72 -27
-130 -47 -109 -39 -121 -44 -180 -69 -19 -8 -66 -27 -105 -42 -38 -15 -94 -38
-123 -51 -29 -13 -56 -24 -61 -24 -4 0 -35 -13 -69 -30 -34 -16 -65 -30 -68
-30 -5 0 -27 -10 -169 -76 -462 -213 -725 -351 -1150 -604 -294 -175 -710
-451 -900 -597 -6 -4 -73 -55 -150 -113 -77 -58 -142 -107 -145 -110 -3 -3
-34 -28 -70 -55 -36 -28 -67 -52 -70 -55 -3 -3 -27 -24 -55 -45 -55 -45 -92
-75 -109 -90 -6 -6 -38 -33 -71 -60 -32 -28 -66 -57 -75 -65 -21 -19 -156
-139 -184 -163 -180 -156 -684 -660 -853 -853 -10 -12 -44 -50 -75 -85 -79
-89 -95 -108 -136 -158 -21 -24 -73 -87 -117 -140 -44 -53 -98 -119 -120 -146
-22 -28 -44 -55 -50 -61 -5 -6 -19 -23 -30 -39 -11 -15 -31 -42 -45 -59 -55
-69 -133 -174 -245 -332 -105 -147 -293 -421 -310 -451 -5 -10 -26 -43 -46
-73 -20 -30 -62 -98 -94 -150 -32 -52 -69 -113 -83 -134 -13 -22 -38 -65 -55
-95 -16 -31 -34 -61 -38 -67 -5 -6 -20 -31 -33 -55 -13 -24 -33 -62 -46 -84
-12 -22 -45 -83 -73 -135 -27 -52 -53 -99 -57 -105 -11 -15 -181 -353 -235
-470 -73 -155 -105 -225 -105 -230 0 -2 -13 -32 -30 -67 -30 -65 -190 -455
-190 -465 0 -3 -6 -19 -14 -36 -8 -18 -31 -77 -51 -132 -19 -55 -39 -107 -42
-115 -3 -8 -7 -19 -9 -25 -1 -5 -21 -64 -44 -130 -46 -130 -148 -455 -156
-494 -3 -13 -9 -32 -15 -43 -5 -10 -7 -18 -5 -18 3 0 1 -12 -5 -27 -6 -16 -13
-37 -15 -48 -2 -11 -18 -69 -34 -130 -30 -108 -35 -125 -45 -165 -12 -47 -16
-66 -21 -90 -3 -14 -17 -72 -30 -130 -14 -58 -28 -116 -30 -130 -3 -14 -15
-77 -29 -140 -27 -133 -55 -282 -71 -380 -2 -14 -7 -41 -10 -60 -3 -19 -8 -46
-10 -60 -2 -14 -7 -41 -10 -60 -3 -19 -8 -48 -10 -63 -4 -32 -14 -101 -19
-137 -7 -46 -15 -105 -20 -150 -7 -62 -15 -138 -20 -180 -7 -58 -13 -121 -21
-205 -4 -44 -8 -93 -10 -110 -2 -26 -6 -89 -19 -297 -20 -323 -28 -1647 -10
-1649 44 -4 9309 -3 9316 1 4 3 9 267 10 585 0 319 5 607 9 640 5 33 11 82 15
108 3 26 10 71 16 100 6 29 12 63 15 77 41 212 175 533 309 741 103 159 173
246 320 395 175 177 364 314 590 429 248 126 410 178 720 232 73 13 205 17
710 20 341 3 622 7 624 9 3 2 5 2101 5 4664 1 4135 -1 4660 -14 4661 -21 2
-1101 4 -1103 3z m-6957 -4138 c0 -2 -8 -10 -17 -17 -16 -13 -17 -12 -4 4 13
16 21 21 21 13z"/>
</g>
</svg>
